# xmcd CD database file
#
# Track frame offsets:
#	150
#	14678
#	26245
#	40530
#	52195
#	65617
#	79272
#	94307
#	107822
#	122237
#	136632
#	150275
#	160379
#	173074
#	187074
#	202081
#	217451
#	227990
#	240744
#	254504
#	267346
#	280995
#
# Disc length: 3901 seconds
#
# Revision: 0
# Processed by: cddbd v1.5.2PL0 Copyright (c) Steve Scherf et al.
# Submitted via: CDex 1.70beta2
#
DISCID=520f3b16
DTITLE=Miles Davis - Bebop Story Vol 2 1949-50 Disc 064
DYEAR=2008
DGENRE=Jazz
TTITLE0=Jeru
TTITLE1=Move
TTITLE2=Godchild
TTITLE3=Budo
TTITLE4=John's Delight
TTITLE5=What's New
TTITLE6=Heaven's Doors Are Open Wide
TTITLE7=Focus
TTITLE8=Venus De Milo
TTITLE9=Rouge
TTITLE10=Boplicity
TTITLE11=Israel
TTITLE12=Deception
TTITLE13=Rocker
TTITLE14=Moon Dreams
TTITLE15=Darn that Dream
TTITLE16=Morphues
TTITLE17=Down
TTITLE18=The Blue Room
TTITLE19=The Blue Room
TTITLE20=Whispering
TTITLE21=I Know
EXTD=YEAR: 2008
EXTT0=
EXTT1=
EXTT2=
EXTT3=
EXTT4=
EXTT5=
EXTT6=
EXTT7=
EXTT8=
EXTT9=
EXTT10=
EXTT11=
EXTT12=
EXTT13=
EXTT14=
EXTT15=
EXTT16=
EXTT17=
EXTT18=
EXTT19=
EXTT20=
EXTT21=
PLAYORDER=
